# xmcd CD database file
#
# Track frame offsets:
#	150
#	12121
#	26833
#	38881
#	50986
#	63507
#	77427
#	90316
#	105392
#	117028
#	128192
#	138675
#	149777
#	163129
#	171845
#	183449
#	197196
#	209299
#	220953
#	234162
#	248085
#
# Disc length: 3462 seconds
#
# Revision: 0
# Processed by: cddbd v1.5.2PL0 Copyright (c) Steve Scherf et al.
# Submitted via: CDex 1.51
#
DISCID=2f0d8415
DTITLE=The Best Country Stars - KC´s Country Collection
DYEAR=2007
DGENRE=Country
TTITLE0=Johnny Cash - Ring of fire
TTITLE1=John Denver - Take Me Home, Country Roads
TTITLE2=Nancy Sinatra - Bang Bang (My Baby Shot Me Dow
TTITLE3=Peggy Lee - Riders In The Sky
TTITLE4=Nancy Sinatra - These Boots Are Made For Walki
TTITLE5=Joaquin Phoenix and Reese Wither - It Ain't Me Babe
TTITLE6=Joaquin Phoenix and Reese Wither - Jackson
TTITLE7=Laine, Frankie - Ghost Riders in the Sky
TTITLE8=Johnny Cash - I Walk The Line
TTITLE9=Roger Miller - King of the road
TTITLE10=Emmylou Harris - Mr. Sandman
TTITLE11=Dusty Springfield - Son Of A Preacher Man
TTITLE12=Lynn Anderson -  Rose Garden
TTITLE13=Dean Martin - Night train to Memphis
TTITLE14=Tennessee Ernie Ford - Sixteen Tons
TTITLE15=Kingston Trio - Tom Dooley
TTITLE16=Tammy Wynette - Stand By Your Man
TTITLE17=Sammi Smith - Help Me Make It Through The Ni
TTITLE18=Glenn Campell - Southern Nights
TTITLE19=George Kent - Doogie Ray
TTITLE20=Dean Martin - I'm So Lonesome I Could Cry
EXTD=YEAR: 2007
EXTT0=
EXTT1=
EXTT2=
EXTT3=
EXTT4=
EXTT5=
EXTT6=
EXTT7=
EXTT8=
EXTT9=
EXTT10=
EXTT11=
EXTT12=
EXTT13=
EXTT14=
EXTT15=
EXTT16=
EXTT17=
EXTT18=
EXTT19=
EXTT20=
PLAYORDER=
